<svg width="59" height="60" viewBox="0 0 59 60" fill="none" xmlns="http://www.w3.org/2000/svg">
<path d="M48.145 30.3602C49.3798 30.3602 50.3933 31.3642 50.2613 32.592C49.9022 35.9326 48.7407 39.149 46.8618 41.961C44.5674 45.3948 41.3063 48.0711 37.4909 49.6515C33.6754 51.232 29.477 51.6455 25.4265 50.8398C21.376 50.0341 17.6554 48.0454 14.7352 45.1252C11.815 42.2049 9.82629 38.4843 9.0206 34.4339C8.21491 30.3834 8.62842 26.185 10.2088 22.3695C11.7893 18.5541 14.4656 15.2929 17.8994 12.9985C20.7113 11.1197 23.9278 9.95817 27.2684 9.59907C28.4962 9.4671 29.5001 10.4805 29.5001 11.7154C29.5001 12.9503 28.4945 13.9357 27.2711 14.1034C24.8165 14.44 22.4599 15.3296 20.3838 16.7167C17.6854 18.5198 15.5822 21.0825 14.3403 24.0808C13.0983 27.0792 12.7734 30.3784 13.4065 33.5615C14.0397 36.7445 15.6025 39.6683 17.8973 41.9631C20.1921 44.2579 23.1159 45.8207 26.2989 46.4538C29.4819 47.087 32.7812 46.762 35.7795 45.5201C38.7779 44.2781 41.3406 42.175 43.1436 39.4765C44.5308 37.4005 45.4204 35.0439 45.7569 32.5893C45.9247 31.3659 46.9101 30.3602 48.145 30.3602Z" fill="#FA807D"/>
<path d="M41.9668 44.2243C42.7925 45.1425 42.7237 46.5674 41.7224 47.2902C38.9983 49.2568 35.8299 50.5438 32.4828 51.0269C28.3953 51.6168 24.2247 50.9814 20.4983 49.201C16.772 47.4206 13.6573 44.5752 11.5481 41.0246C9.43885 37.474 8.42988 33.3777 8.64874 29.2537C8.8676 25.1297 10.3045 21.1632 12.7776 17.8558C15.2508 14.5483 18.6491 12.0486 22.543 10.6726C26.4368 9.2966 30.6513 9.10617 34.6534 10.1254C37.9306 10.96 40.9449 12.5751 43.4456 14.819C44.3647 15.6437 44.2824 17.0679 43.3642 17.8936C42.4459 18.7193 41.0408 18.6303 40.098 17.8328C38.2066 16.2327 35.9693 15.0751 33.5497 14.4589C30.4047 13.658 27.0929 13.8076 24.0329 14.8889C20.973 15.9703 18.3024 17.9347 16.3589 20.5337C14.4154 23.1328 13.2863 26.2499 13.1143 29.4907C12.9423 32.7315 13.7352 35.9505 15.3927 38.7407C17.0502 41.5309 19.4979 43.7669 22.4262 45.166C25.3545 46.5651 28.6319 47.0645 31.844 46.6009C34.3152 46.2442 36.6624 45.33 38.7126 43.939C39.7345 43.2457 41.1412 43.306 41.9668 44.2243Z" fill="#FE8A5B"/>
<path d="M29.2019 49.0027C29.1821 50.2374 28.1621 51.2346 26.9366 51.083C24.5831 50.7919 22.2907 50.1012 20.16 49.0355C18.0292 47.9699 16.1016 46.55 14.4569 44.8415C13.6005 43.9518 13.7866 42.5376 14.7627 41.7811C15.7388 41.0247 17.1337 41.216 18.0157 42.0802C19.2318 43.2719 20.6293 44.2703 22.1603 45.036C23.6912 45.8017 25.3283 46.321 27.0113 46.5793C28.2319 46.7666 29.2216 47.768 29.2019 49.0027Z" fill="#FDE15C"/>
<path d="M18.0307 45.0599C17.271 46.0335 15.8561 46.2149 14.9693 45.3556C13.2663 43.7053 11.8528 41.7729 10.7941 39.6387C9.73553 37.5044 9.05242 35.2098 8.76904 32.8553C8.62149 31.6293 9.6221 30.6126 10.8569 30.5969C12.0916 30.5813 13.0897 31.5743 13.273 32.7955C13.5257 34.4793 14.0396 36.1181 14.8003 37.6516C15.5609 39.1851 16.5547 40.5859 17.7423 41.8059C18.6037 42.6908 18.7903 44.0863 18.0307 45.0599Z" fill="#FEFC5C"/>
<path d="M11.3684 34.7044C10.1675 34.9921 8.9481 34.2519 8.79038 33.0272C8.48749 30.6751 8.58681 28.283 9.0895 25.9543C9.59219 23.6256 10.4885 21.4055 11.7346 19.3879C12.3835 18.3372 13.7997 18.166 14.775 18.9235C15.7502 19.681 15.9116 21.0796 15.2937 22.1487C14.4416 23.6229 13.8219 25.2247 13.4607 26.8979C13.0995 28.5711 13.0033 30.2859 13.1714 31.9803C13.2933 33.2091 12.5693 34.4166 11.3684 34.7044Z" fill="#E0FC5C"/>
<path d="M12.5297 22.6375C11.4057 22.126 10.8991 20.7925 11.5278 19.7297C12.7352 17.6885 14.2843 15.8631 16.1126 14.3357C17.9409 12.8083 20.0128 11.6086 22.2361 10.7836C23.3939 10.3541 24.616 11.0898 24.9194 12.2868C25.2227 13.4838 24.49 14.6861 23.3453 15.1493C21.767 15.7879 20.2933 16.6701 18.9797 17.7675C17.666 18.865 16.5358 20.1582 15.6265 21.5978C14.9671 22.6419 13.6537 23.149 12.5297 22.6375Z" fill="#A2FD62"/>
<path d="M20.5043 14.0292C19.9085 12.9475 20.2988 11.5755 21.4379 11.0987C23.6255 10.183 25.9583 9.6446 28.337 9.51188C30.7157 9.37917 33.0939 9.65477 35.3697 10.3214C36.5548 10.6685 37.0954 11.9886 36.6236 13.1298C36.1518 14.271 34.846 14.7975 33.6513 14.4851C32.004 14.0543 30.2952 13.8814 28.5861 13.9768C26.877 14.0722 25.1981 14.4341 23.6089 15.0454C22.4564 15.4887 21.1001 15.1108 20.5043 14.0292Z" fill="#5BFBCB"/>
<path d="M32.2366 11.9174C32.4179 10.6959 33.5597 9.84075 34.7548 10.1515C37.0499 10.7483 39.2321 11.7332 41.205 13.0687C43.1779 14.4041 44.903 16.0642 46.3098 17.9733C47.0424 18.9674 46.6727 20.3452 45.606 20.9673C44.5393 21.5894 43.1814 21.2171 42.4202 20.2448C41.3705 18.9042 40.1158 17.7314 38.6982 16.7719C37.2807 15.8123 35.7257 15.0831 34.091 14.6067C32.9055 14.2612 32.0554 13.1389 32.2366 11.9174Z" fill="#5DD8E7"/>
<path d="M43.2631 17.7822C44.1747 16.9492 45.6 17.0065 46.3309 18.0019C47.7344 19.9134 48.8054 22.0547 49.4928 24.3357C50.1801 26.6168 50.4705 28.9932 50.3567 31.362C50.2975 32.5954 49.1411 33.4308 47.9211 33.24C46.701 33.0493 45.8828 31.9035 45.906 30.6689C45.938 28.9665 45.705 27.2649 45.2111 25.6259C44.7172 23.987 43.9713 22.4399 43.0041 21.0386C42.3026 20.0224 42.3516 18.6153 43.2631 17.7822Z" fill="#FF5B5A"/>
</svg>
